<svg width="161" height="90" viewBox="0 0 161 90" fill="none" xmlns="http://www.w3.org/2000/svg">
<path d="M6.85388 46.075C6.69763 45.8842 6.55746 45.7104 6.4334 45.5546C6.58294 45.386 6.75391 45.1955 6.94607 44.9845C7.81029 44.0352 9.10244 42.6718 10.8 41.032C14.1962 37.7513 19.2082 33.3712 25.6555 28.9907C38.5563 20.2256 57.1409 11.5 80 11.5C104.373 11.5 122.954 20.2359 135.453 28.9791C141.704 33.3519 146.428 37.723 149.585 40.9946C151.162 42.6299 152.347 43.989 153.133 44.934C153.34 45.1823 153.519 45.402 153.67 45.5905C153.557 45.7617 153.426 45.9572 153.276 46.1751C152.632 47.1106 151.645 48.4597 150.286 50.085C147.57 53.3361 143.373 57.6876 137.483 62.044C125.718 70.7453 107.151 79.5 80 79.5C55.3747 79.5 36.795 70.7624 24.3626 62.0229C18.1442 57.6515 13.4679 53.282 10.3515 50.012C8.7937 48.3775 7.62711 47.0192 6.85388 46.075Z" stroke="white" stroke-width="3"/>
<path d="M116.467 41.7183C115.415 29.459 105.588 19.7243 93.2893 18.7945C101.188 23.0493 106.558 31.3922 106.558 40.9915C106.558 41.2377 106.527 41.4745 106.52 41.7183H98.4286L110.919 57.7938L124.41 41.7183H116.467Z" fill="white"/>
<path d="M55.1808 51.0085C55.1808 50.7355 55.2112 50.4707 55.2205 50.2012H63.5713L51.0823 34.1257L37.5898 50.2012H45.2653C46.2827 62.4978 56.1235 72.2757 68.447 73.2067C60.5498 68.9495 55.1808 60.6078 55.1808 51.0085Z" fill="white"/>
<path d="M88.5 30H71.5V47H76.5L75 65.25L90.5 44H78.5L88.5 30Z" fill="#77B900"/>
</svg>
